<svg xmlns="http://www.w3.org/2000/svg" xmlns:xlink="http://www.w3.org/1999/xlink" width="119" height="119" viewBox="0 0 119 119">
  <defs>
    <clipPath id="clip-path">
      <rect id="Rectángulo_1216" data-name="Rectángulo 1216" width="119" height="119" fill="none"/>
    </clipPath>
  </defs>
  <g id="Grupo_2251" data-name="Grupo 2251" clip-path="url(#clip-path)">
    <path id="Trazado_4234" data-name="Trazado 4234" d="M55.139,119.637A18.323,18.323,0,0,0,51.054,119a58.736,58.736,0,0,1-32.307-15.717A57.4,57.4,0,0,1,.8,69.511C-2.118,50.273,2.95,33.271,16.208,18.926A58.506,58.506,0,0,1,50.126.751,41.437,41.437,0,0,0,55.139,0h4.674q0,3.493.007,6.986a58.457,58.457,0,0,0-8.585.731,50.783,50.783,0,0,0-26.9,13.018C11.863,32.346,6.1,46.741,7.2,63.809a51.1,51.1,0,0,0,7.35,23.217,21.613,21.613,0,0,0,3.6,4.981,1.706,1.706,0,0,0,.517.891,52.552,52.552,0,0,0,23.563,16.72,55.116,55.116,0,0,0,17.585,3.056q0,3.482,0,6.963Z" transform="translate(0)" fill="#c6e52f"/>
    <path id="Trazado_4235" data-name="Trazado 4235" d="M191.492,119.637q0-3.482,0-6.963v-.094a37.411,37.411,0,0,0,6.733-.406,51.086,51.086,0,0,0,17.9-5.62A52.256,52.256,0,0,0,231.9,93.8a36.174,36.174,0,0,0,5.2-7.562,7.348,7.348,0,0,0,.545-.747,52.394,52.394,0,0,0,6.613-23.444A51.3,51.3,0,0,0,241.848,43.9,52.068,52.068,0,0,0,221.3,16.237a51.392,51.392,0,0,0-29.821-9.2l.018-.055q0-3.493-.007-6.986h4.674c.123.28.383.212.6.231a56.6,56.6,0,0,1,23.476,7.131c17.014,9.749,27.253,24.274,30.432,43.7a25.773,25.773,0,0,0,.641,4.321v9.113c-.267.13-.213.386-.233.608a66.178,66.178,0,0,1-1.137,7.49c-4.93,23.871-25.443,43.056-49.587,46.4a18.5,18.5,0,0,0-4.193.65Z" transform="translate(-131.679)" fill="#95cb2a"/>
    <path id="Trazado_4236" data-name="Trazado 4236" d="M33.7,107.434a21.589,21.589,0,0,1-3.6-4.981,51.092,51.092,0,0,1-7.35-23.217C21.653,62.169,27.42,47.774,39.9,36.162a50.78,50.78,0,0,1,26.9-13.018,58.415,58.415,0,0,1,8.585-.731l-.019.055q.007,3.468.015,6.936a6.83,6.83,0,0,0-3.51,1.715A65.135,65.135,0,0,0,58.333,42.986a31.6,31.6,0,0,0-4.039,5.352,27.374,27.374,0,0,0-3.122,5.7,24.416,24.416,0,0,0-2.115,11.118A29.235,29.235,0,0,0,54.219,79.7c4.633,7.025,10.768,12.525,17.635,17.274q-.01,4.412-.02,8.825A48.919,48.919,0,0,0,57.7,102.508a43.815,43.815,0,0,0-24,4.926" transform="translate(-15.557 -15.427)" fill="#f1f1e5"/>
    <path id="Trazado_4237" data-name="Trazado 4237" d="M58.107,284.032a43.815,43.815,0,0,1,24-4.926A48.91,48.91,0,0,1,96.237,282.4l3.319,1.469.228.235q-.006,10.251-.012,20.5v.094a55.116,55.116,0,0,1-17.585-3.056,52.551,52.551,0,0,1-23.563-16.72,1.708,1.708,0,0,1-.517-.891" transform="translate(-39.96 -192.025)" fill="#8c624d"/>
    <path id="Trazado_4238" data-name="Trazado 4238" d="M191.5,29.524q-.007-3.468-.015-6.936a51.389,51.389,0,0,1,29.821,9.2,52.067,52.067,0,0,1,20.547,27.661A51.311,51.311,0,0,1,244.263,77.6a52.394,52.394,0,0,1-6.613,23.444,7.341,7.341,0,0,1-.546.748c-3.106,1.115-6.2,2.253-9.318,3.338-5.782,2.014-11.385,4.649-17.6,5.187a37.005,37.005,0,0,1-15.195-1.551q.008-5.83.017-11.66a69.238,69.238,0,0,0,13.31-11.617c5.014-5.751,8.882-12.077,9.452-19.94a20.165,20.165,0,0,0-1.26-8.89,23.033,23.033,0,0,0-3.251-7.058,9.7,9.7,0,0,0-.479-.923,62.757,62.757,0,0,0-17.785-17.445c-1.082-.731-2.056-1.7-3.512-1.611Z" transform="translate(-131.679 -15.548)" fill="#d8d8b8"/>
    <path id="Trazado_4239" data-name="Trazado 4239" d="M195.013,283.681a37,37,0,0,0,15.195,1.551c6.216-.538,11.818-3.173,17.6-5.187,3.116-1.085,6.213-2.223,9.318-3.338a36.181,36.181,0,0,1-5.2,7.562,52.26,52.26,0,0,1-15.779,12.75,51.086,51.086,0,0,1-17.9,5.62,37.385,37.385,0,0,1-6.733.406q.007-10.251.013-20.5l3.488,1.138" transform="translate(-131.701 -190.465)" fill="#733f33"/>
    <path id="Trazado_4240" data-name="Trazado 4240" d="M129.982,154.231c-6.867-4.749-13-10.249-17.635-17.274a29.237,29.237,0,0,1-5.162-14.541A24.416,24.416,0,0,1,109.3,111.3a27.393,27.393,0,0,1,3.122-5.705c.309.347.6.711.928,1.039q7.952,7.961,15.917,15.908a2.105,2.105,0,0,1,.742,1.61q-.04,15.04-.027,30.081" transform="translate(-73.685 -72.682)" fill="#c6e52e"/>
    <path id="Trazado_4241" data-name="Trazado 4241" d="M141.593,112.414q.006-15.041.027-30.081a2.105,2.105,0,0,0-.742-1.61q-7.971-7.942-15.917-15.908c-.327-.328-.619-.692-.928-1.039a31.6,31.6,0,0,1,4.039-5.352c.533.035.785.473,1.107.794q5.7,5.685,11.4,11.376c.279.277.468.726,1.027.717V46.555a6.829,6.829,0,0,1,3.51-1.715l-.012.1q0,38.334,0,76.667c0,.375.118.787-.213,1.1l-3.319-1.469q.01-4.413.02-8.825" transform="translate(-85.296 -30.865)" fill="#94cb29"/>
    <path id="Trazado_4242" data-name="Trazado 4242" d="M150.5,50.344V75.1c-.559.01-.748-.439-1.027-.717q-5.709-5.678-11.4-11.376c-.322-.321-.574-.759-1.107-.794A65.12,65.12,0,0,1,150.5,50.344" transform="translate(-94.189 -34.653)" fill="#c6e52e"/>
    <path id="Trazado_4243" data-name="Trazado 4243" d="M190.821,122.911c.331-.317.213-.729.213-1.1q0-38.334,0-76.667c1.456-.084,2.43.881,3.512,1.611q0,18.226,0,36.462c.452-.011.585-.281.767-.462q8.463-8.45,16.915-16.913a8.631,8.631,0,0,0,.582-.719,23.023,23.023,0,0,1,3.251,7.058c-.443.009-.681.34-.952.612q-9.987,9.982-19.977,19.96a1.86,1.86,0,0,0-.594,1.438q.031,9.218.021,18.436-.008,5.83-.016,11.66l-3.489-1.138-.228-.235" transform="translate(-131.226 -31.067)" fill="#6bb224"/>
    <path id="Trazado_4244" data-name="Trazado 4244" d="M202.729,172.346q-.005-9.218-.021-18.436a1.858,1.858,0,0,1,.594-1.438q10-9.97,19.977-19.96c.271-.271.51-.6.953-.612a20.164,20.164,0,0,1,1.26,8.889c-.57,7.863-4.438,14.189-9.452,19.94a69.239,69.239,0,0,1-13.31,11.617" transform="translate(-139.4 -90.79)" fill="#95cb29"/>
    <path id="Trazado_4245" data-name="Trazado 4245" d="M221,68.688a8.634,8.634,0,0,1-.582.719Q211.964,77.869,203.5,86.32c-.181.181-.315.451-.767.462V50.32a62.756,62.756,0,0,1,17.785,17.445,9.647,9.647,0,0,1,.479.924" transform="translate(-139.418 -34.637)" fill="#94cb29"/>
  </g>
</svg>
