<?xml version="1.0" encoding="UTF-8"?>
<svg width="61px" height="74px" viewBox="0 0 61 74" version="1.1" xmlns="http://www.w3.org/2000/svg" xmlns:xlink="http://www.w3.org/1999/xlink">
    <!-- Generator: Sketch 62 (91390) - https://sketch.com -->
    <title>Group 29</title>
    <desc>Created with Sketch.</desc>
    <g id="Page-1" stroke="none" stroke-width="1" fill="none" fill-rule="evenodd">
        <g id="Landing-Campañas-Desktop-Copy-20" transform="translate(-466.000000, -778.000000)">
            <g id="Group-29" transform="translate(467.000000, 779.000000)">
                <rect id="Rectangle" fill="#F2F6F8" x="7.65900001" y="29.4149999" width="13.9859999" height="10.101" rx="2.33099999"></rect>
                <rect id="Rectangle-Copy-120" fill="#F2F6F8" x="24.4200003" y="29.4149999" width="13.9859999" height="10.101" rx="2.33099999"></rect>
                <rect id="Rectangle-Copy-123" fill="#F2F6F8" x="41.0700005" y="29.4149999" width="13.9859999" height="10.101" rx="2.33099999"></rect>
                <rect id="Rectangle" stroke="#6680AD" stroke-width="1.5" x="0" y="0" width="58.2749998" height="71.4839997" rx="6.21599997"></rect>
                <rect id="Rectangle" stroke="#6680AD" stroke-width="1.5" x="5.43899998" y="6.21599997" width="47.3969998" height="13.9859999" rx="2.33099999"></rect>
                <rect id="Rectangle" stroke="#6680AD" stroke-width="1.5" x="5.43899998" y="27.1949999" width="13.9859999" height="10.101" rx="2.33099999"></rect>
                <rect id="Rectangle-Copy-110" fill="#F2F6F8" x="7.65900001" y="43.2900006" width="13.9859999" height="10.101" rx="2.33099999"></rect>
                <rect id="Rectangle-Copy-121" fill="#F2F6F8" x="24.4200003" y="43.2900006" width="13.9859999" height="10.101" rx="2.33099999"></rect>
                <rect id="Rectangle-Copy-110" fill="#F2F6F8" x="7.65900001" y="57.7200007" width="13.9859999" height="10.101" rx="2.33099999"></rect>
                <rect id="Rectangle-Copy-122" fill="#F2F6F8" x="24.4200003" y="57.7200007" width="13.9859999" height="10.101" rx="2.33099999"></rect>
                <rect id="Rectangle-Copy-125" fill="#F2F6F8" x="41.0700005" y="44.5110004" width="13.9859999" height="23.3100003" rx="2.33099999"></rect>
                <rect id="Rectangle-Copy-55" stroke="#6680AD" stroke-width="1.5" x="5.43899998" y="41.1809998" width="13.9859999" height="10.101" rx="2.33099999"></rect>
                <rect id="Rectangle-Copy-117" stroke="#6680AD" stroke-width="1.5" x="5.43899998" y="55.1669998" width="13.9859999" height="10.101" rx="2.33099999"></rect>
                <rect id="Rectangle-Copy-8" stroke="#6680AD" stroke-width="1.5" x="38.8499998" y="27.1949999" width="13.9859999" height="10.101" rx="2.33099999"></rect>
                <rect id="Rectangle-Copy-118" stroke="#8CD97E" stroke-width="1.5" x="38.8499998" y="41.1809998" width="13.9859999" height="24.0869999" rx="2.33099999"></rect>
                <rect id="Rectangle-Copy-45" stroke="#6680AD" stroke-width="1.5" x="22.5329999" y="27.1949999" width="13.2089999" height="10.101" rx="2.33099999"></rect>
                <rect id="Rectangle-Copy-116" stroke="#6680AD" stroke-width="1.5" x="22.5329999" y="41.1809998" width="13.2089999" height="10.101" rx="2.33099999"></rect>
                <rect id="Rectangle-Copy-119" stroke="#6680AD" stroke-width="1.5" x="22.5329999" y="55.1669998" width="13.2089999" height="10.101" rx="2.33099999"></rect>
                <path d="M45.6487498,14.9572499 C45.6487498,14.6355719 45.3448457,14.3744999 44.9688748,14.3744999 C44.5935838,14.3744999 44.2889998,14.6355719 44.2889998,14.9572499 C44.2889998,16.0405822 45.1592398,16.9450102 46.3286248,17.2054994 L46.3286248,17.2882499 C46.3286248,17.6099279 46.6332088,17.8709999 47.0084998,17.8709999 C47.3844707,17.8709999 47.6883748,17.6099279 47.6883748,17.2882499 L47.6883748,17.2054994 C48.8584397,16.9450102 49.7279998,16.0405822 49.7279998,14.9572499 C49.7279998,13.6722862 48.508304,12.6262499 47.0084998,12.6262499 C46.2592776,12.6262499 45.6487498,12.1035232 45.6487498,11.46075 C45.6487498,10.8179767 46.2592776,10.29525 47.0084998,10.29525 C47.7584019,10.29525 48.3682498,10.8179767 48.3682498,11.46075 C48.3682498,11.782428 48.6728338,12.0435 49.0481248,12.0435 C49.4240957,12.0435 49.7279998,11.782428 49.7279998,11.46075 C49.7279998,10.3780005 48.8584397,9.47357246 47.6883748,9.21250046 L47.6883748,9.12974996 C47.6883748,8.80807196 47.3844707,8.54699996 47.0084998,8.54699996 C46.6332088,8.54699996 46.3286248,8.80807196 46.3286248,9.12974996 L46.3286248,9.21250046 C45.1592398,9.47357246 44.2889998,10.3780005 44.2889998,11.46075 C44.2889998,12.7462964 45.5086956,13.7917499 47.0084998,13.7917499 C47.7584019,13.7917499 48.3682498,14.3144767 48.3682498,14.9572499 C48.3682498,15.6000232 47.7584019,16.1227499 47.0084998,16.1227499 C46.2592776,16.1227499 45.6487498,15.6000232 45.6487498,14.9572499 Z" id="Path" fill="#8CD97E" fill-rule="nonzero"></path>
            </g>
        </g>
    </g>
</svg>