<svg id="Grupo_2250" data-name="Grupo 2250" xmlns="http://www.w3.org/2000/svg" xmlns:xlink="http://www.w3.org/1999/xlink" width="118.549" height="118.548" viewBox="0 0 118.549 118.548">
  <defs>
    <clipPath id="clip-path">
      <rect id="Rectángulo_1203" data-name="Rectángulo 1203" width="118.548" height="118.548" fill="none"/>
    </clipPath>
  </defs>
  <g id="Grupo_2245" data-name="Grupo 2245" clip-path="url(#clip-path)">
    <path id="Trazado_4210" data-name="Trazado 4210" d="M61.137,61.405l-.494,58.32C28.771,119.456,2.7,93.213,2.7,61.405,2.7,29.41,29.077,3.083,61.137,3.083q.262,0,.525,0Z" transform="translate(-1.862 -2.131)" fill="#f1f1e5"/>
    <path id="Trazado_4211" data-name="Trazado 4211" d="M186.378,61.41l.494-58.32c31.872.269,57.947,26.512,57.947,58.32,0,31.995-26.381,58.322-58.441,58.322q-.262,0-.525,0Z" transform="translate(-128.337 -2.136)" fill="#d8d8b8"/>
    <path id="Trazado_4212" data-name="Trazado 4212" d="M54.637,118.548a18.156,18.156,0,0,0-4.048-.631,58.2,58.2,0,0,1-32.013-15.574A56.874,56.874,0,0,1,.79,68.878C-2.1,49.816,2.924,32.968,16.061,18.754A57.973,57.973,0,0,1,49.67.744,41.06,41.06,0,0,0,54.637,0h4.631q0,3.461.007,6.922a57.925,57.925,0,0,0-8.507.724,50.321,50.321,0,0,0-26.652,12.9C11.755,32.051,6.041,46.316,7.132,63.228a50.632,50.632,0,0,0,7.283,23.005,21.417,21.417,0,0,0,3.568,4.936,1.691,1.691,0,0,0,.512.883,52.073,52.073,0,0,0,23.348,16.568,54.613,54.613,0,0,0,17.425,3.028q0,3.45,0,6.9Z" transform="translate(0)" fill="#c6e52f"/>
    <path id="Trazado_4213" data-name="Trazado 4213" d="M191.491,118.548q0-3.45,0-6.9v-.094a37.071,37.071,0,0,0,6.672-.4,50.621,50.621,0,0,0,17.736-5.569A51.78,51.78,0,0,0,231.533,92.95a35.846,35.846,0,0,0,5.157-7.493,7.268,7.268,0,0,0,.54-.741,51.916,51.916,0,0,0,6.552-23.231A50.831,50.831,0,0,0,241.389,43.5a51.594,51.594,0,0,0-20.36-27.41,50.925,50.925,0,0,0-29.55-9.113l.018-.054q0-3.461-.007-6.922h4.631c.122.277.379.21.6.229A56.082,56.082,0,0,1,219.982,7.3c16.859,9.661,27,24.053,30.155,43.3a25.538,25.538,0,0,0,.635,4.281V63.9c-.265.129-.211.382-.231.6a65.576,65.576,0,0,1-1.127,7.422c-4.885,23.654-25.212,42.665-49.136,45.975a18.327,18.327,0,0,0-4.155.644Z" transform="translate(-132.223)" fill="#95cb2a"/>
    <path id="Trazado_4214" data-name="Trazado 4214" d="M65.678,96.963c-.857-.954-.831-1.735.153-2.7q9.338-9.2,18.562-18.517c1.074-1.083,1.811-.979,2.828.048,1.214,1.226,2.332,3.446,3.792,3.29,1.379-.147,2.574-2.154,3.821-3.37,1.523-1.486,3.063-2.959,4.508-4.519.953-1.029,1.681-.99,2.632,0,2.052,2.137,4.184,4.2,6.282,6.292q17.671,17.635,35.349,35.262c.968.964,1.94,1.826.59,3.173q-7.953,7.829-15.9,15.662c-4.066,4.024-4.087,4.073-8.07.168-.974-.955-1.532-1.078-2.514-.025-2.124,2.277-4.479,4.341-6.559,6.655-1.392,1.549-2.266,1.577-3.785.046q-19.839-19.979-39.83-39.807c-.586-.584-1.237-1.1-1.857-1.653m51.163,5.388c.5-1.436.676-2.788-.952-3.679-.4-.222-.818-.471-1.248-.115s-.322.817-.1,1.231c.571,1.056,1.168,2.1,1.755,3.146a7.5,7.5,0,0,0,2.317,4.291,56.464,56.464,0,0,1,4.212,4.174,2.621,2.621,0,0,0,2.571.925c2.5-.357,3.983,1.273,3.756,3.841-.039.439-.444.956-.072,1.3,1.932,1.785.229,2.725-.841,3.813q-1.52,1.545-3.069,3.062c-.822.8-1.859,1.541-.36,2.67a.628.628,0,0,1,.068.994.539.539,0,0,1-.81-.045c-1.858-2.069-2.622.151-3.455,1.032-1.205,1.275.612,1.654,1.073,2.432.225.38.679.618.946.981,1.006,1.367,1.805,1.3,3.027.048,5.257-5.391,10.573-10.728,16-15.949,1.535-1.477,1.695-2.257.071-3.857-12.137-11.958-24.157-24.034-36.227-36.061-1.557-1.551-3.129-4.165-4.795-4.246-1.9-.093-3.323,2.737-4.934,4.311-3.924,3.834-3.91,3.877.08,7.783.757.741,1.282,1.727,2.8,1.5,2.862-.434,4.223,1.051,3.927,3.989a1.731,1.731,0,0,0,.393,1.644c1.952,1.92,3.878,3.867,5.818,5.8.473.471.755.725,1.346-.1,1.968-2.733,4.308-3.185,7.051-1.5.961.589,1.731,1.442,3.012.46.576-.442,1.416.647,1.232.788-1.805,1.383-.153,2.706-.041,4.024a3.347,3.347,0,0,1-1.4,3.4c-1.186.689-1.514-.883-2.287-1.349a6.638,6.638,0,0,1-.862-.736m-7.584,35.885c.4-.339.77-.607,1.088-.925,5.71-5.691,11.387-11.416,17.145-17.06,1.075-1.054.819-1.61-.1-2.528q-20.223-20.113-40.374-40.3c-.845-.846-1.392-1.092-2.367-.1Q76.067,86.008,67.365,94.57c-.917.9-.675,1.41.1,2.184q20.3,20.2,40.556,40.438c.37.369.8.679,1.232,1.044M98.88,87.332a6.258,6.258,0,0,0,2.291,2.168c.055-2.077-.158-2.29-2.291-2.168m28.779,28.632c.073-2.069-.14-2.288-2.361-2.2a8.308,8.308,0,0,0,2.361,2.2" transform="translate(-44.928 -48.681)" fill="#ecf2e5"/>
    <path id="Trazado_4215" data-name="Trazado 4215" d="M66.473,156.335c.62.549,1.271,1.069,1.857,1.653q19.939,19.88,39.83,39.807c1.52,1.53,2.393,1.5,3.786-.047,2.08-2.313,4.435-4.377,6.559-6.654.982-1.053,1.54-.93,2.514.025,3.983,3.9,4,3.856,8.07-.167q7.933-7.851,15.9-15.663a2.573,2.573,0,0,1-.668,3.294c-5.5,5.481-10.938,11.019-16.521,16.412-2.72,2.627-3.3,2.487-5.993-.182-2.106-2.09-2.107-2.091-4.2-.006-1.779,1.773-3.539,3.566-5.341,5.315-1.778,1.726-2.647,1.738-4.421-.024q-9.722-9.652-19.4-19.346Q78.1,170.431,67.756,160.114c-1.073-1.068-2.014-2.127-1.283-3.779" transform="translate(-45.723 -108.053)" fill="#4b742e"/>
    <path id="Trazado_4216" data-name="Trazado 4216" d="M113.074,152.218c-.434-.365-.862-.675-1.232-1.044q-20.277-20.22-40.556-40.438c-.778-.775-1.021-1.281-.1-2.184q8.7-8.567,17.279-17.248c.975-.988,1.523-.741,2.367.1q20.156,20.179,40.374,40.3c.923.918,1.18,1.475.1,2.528-5.758,5.643-11.434,11.368-17.144,17.06-.318.317-.686.586-1.089.925M101.1,127.737c3.6,0,5.535-2.961,4.048-6.2-.411-.9-.932-1.74-1.337-2.638-.258-.573-.962-1.255-.181-1.814.825-.591,1.389.224,1.915.716a1.817,1.817,0,0,1,.518,2.054c-.254.813,1.783,3.49,2.46,3.269a2.7,2.7,0,0,0,1.738-2.681,5.7,5.7,0,0,0-.331-2.219c-.31-.828-1.068-1.574.2-2.243.458-.241.335-.624.045-.933-.256-.273-.625-.659-.962-.357-1.412,1.264-2.309-.006-3.366-.59a4.911,4.911,0,0,0-5.929.465c-1.65,1.711-1.329,3.564-.288,5.44a19.673,19.673,0,0,1,1.272,2.413c.416,1.083-.155,1.75-1.211,1.425-1.4-.43-2.357-1.4-1.979-3.073.272-1.2-.867-3.537-1.969-3.572-1.485-.048-1.9,1.284-2.32,2.4a3.85,3.85,0,0,0,.312,3.095c.45.906.761,1.642-.39,2.242-.423.221-.7.594-.268,1.086.27.305.712.592.984.339,1.593-1.481,2.731-.15,3.995.547a5.938,5.938,0,0,0,3.043.834M88.327,110.816a3.327,3.327,0,0,0,3.322-3.306,3.253,3.253,0,0,0-3.138-3.235,3.313,3.313,0,0,0-3.448,3.166,3.352,3.352,0,0,0,3.264,3.375m29.787,23.144a3.219,3.219,0,0,0-3.326-3.259,3.285,3.285,0,0,0-3.212,3.4,3.332,3.332,0,0,0,3.235,3.162,3.268,3.268,0,0,0,3.3-3.3M89.893,94.775c-.262.137-.568.193-.626.344-.24.623.261.969.625,1.333q4.752,4.759,9.526,9.493c.382.377.843,1.186,1.457.526.581-.623-.2-1.082-.593-1.477q-4.659-4.69-9.355-9.343c-.317-.314-.682-.58-1.034-.877m26.548,26.462c-.264.118-.558.153-.637.3-.333.628.2.97.556,1.326q4.667,4.686,9.369,9.338c.431.424.919,1.4,1.61.746.715-.679-.251-1.188-.679-1.621-3.047-3.082-6.121-6.135-9.193-9.192-.318-.316-.674-.593-1.026-.9M76.393,108.388c-.231.116-.534.167-.588.312-.233.623.268.969.63,1.333q4.671,4.68,9.367,9.336c.388.383.866,1.19,1.459.566.572-.6-.236-1.064-.624-1.455q-4.576-4.614-9.194-9.187c-.319-.317-.682-.59-1.051-.9M102.9,134.841c-.23.111-.533.159-.59.3-.249.626.263.968.623,1.328q4.668,4.681,9.362,9.335c.393.389.879,1.179,1.467.571s-.233-1.061-.619-1.45q-4.574-4.613-9.191-9.183c-.319-.317-.683-.59-1.052-.9" transform="translate(-48.746 -62.662)" fill="#75a12f"/>
    <path id="Trazado_4217" data-name="Trazado 4217" d="M178.833,106.612a6.614,6.614,0,0,0,.862.736c.773.466,1.1,2.038,2.287,1.349a3.347,3.347,0,0,0,1.4-3.4c-.112-1.318-1.765-2.641.041-4.024.184-.141-.656-1.23-1.232-.788-1.28.982-2.051.129-3.012-.46-2.742-1.681-5.082-1.229-7.051,1.5-.591.82-.872.567-1.346.1-1.941-1.932-3.866-3.879-5.818-5.8a1.732,1.732,0,0,1-.393-1.644c.3-2.939-1.065-4.423-3.927-3.99-1.521.231-2.046-.755-2.8-1.5-3.991-3.907-4-3.949-.08-7.783,1.611-1.574,3.034-4.4,4.934-4.311,1.665.081,3.238,2.695,4.795,4.246,12.069,12.027,24.09,24.1,36.227,36.061,1.624,1.6,1.464,2.38-.071,3.857-5.425,5.221-10.741,10.558-16,15.949-1.221,1.253-2.021,1.319-3.026-.048-.267-.363-.721-.6-.946-.981-.461-.779-2.278-1.158-1.073-2.432.833-.881,1.6-3.1,3.455-1.032a.538.538,0,0,0,.81.045.629.629,0,0,0-.068-.995c-1.5-1.129-.461-1.867.36-2.67q1.55-1.515,3.069-3.062c1.07-1.087,2.773-2.028.841-3.813-.373-.344.033-.861.072-1.3.227-2.567-1.253-4.2-3.756-3.841a2.621,2.621,0,0,1-2.57-.925,56.343,56.343,0,0,0-4.212-4.174,7.5,7.5,0,0,1-2.317-4.291l.543-.582m21.883,11.7a3.194,3.194,0,0,0-.374-.615q-5.158-5.168-10.33-10.32c-.29-.29-.682-.491-1-.2-.439.394-.175.84.16,1.18,1.28,1.3,2.574,2.589,3.866,3.878q3.068,3.063,6.143,6.118c.317.314.642.712,1.163.475.168-.077.253-.337.376-.514M173.493,92.536c.255-.153.552-.227.607-.384.22-.631-.3-.961-.663-1.324q-4.75-4.759-9.526-9.494c-.383-.378-.853-1.186-1.455-.481-.53.621.236,1.081.633,1.481q4.661,4.688,9.357,9.341c.316.313.689.569,1.047.86" transform="translate(-106.92 -52.942)" fill="#75a12e"/>
    <path id="Trazado_4218" data-name="Trazado 4218" d="M226.809,164.89l-.543.582c-.586-1.048-1.183-2.09-1.755-3.146-.224-.414-.332-.875.1-1.231s.844-.106,1.248.116c1.627.891,1.45,2.243.951,3.679" transform="translate(-154.897 -111.22)" fill="#84ab47"/>
    <path id="Trazado_4219" data-name="Trazado 4219" d="M174.337,125.091c2.133-.122,2.346.091,2.291,2.168a6.255,6.255,0,0,1-2.291-2.168" transform="translate(-120.385 -86.439)" fill="#84ab47"/>
    <path id="Trazado_4220" data-name="Trazado 4220" d="M262.067,212.9a8.308,8.308,0,0,1-2.361-2.2c2.22-.087,2.434.133,2.361,2.2" transform="translate(-179.335 -145.615)" fill="#81a944"/>
    <path id="Trazado_4221" data-name="Trazado 4221" d="M150.786,178.477a5.936,5.936,0,0,1-3.043-.834c-1.264-.7-2.4-2.028-3.995-.547-.272.253-.714-.034-.984-.339-.436-.493-.155-.866.269-1.086,1.151-.6.84-1.336.39-2.242a3.85,3.85,0,0,1-.312-3.094c.417-1.113.836-2.445,2.32-2.4,1.1.035,2.241,2.373,1.969,3.572-.378,1.669.581,2.643,1.979,3.073,1.057.325,1.627-.342,1.211-1.425a19.678,19.678,0,0,0-1.272-2.413c-1.04-1.876-1.362-3.73.288-5.44a4.911,4.911,0,0,1,5.929-.465c1.057.585,1.953,1.854,3.366.591.338-.3.707.085.962.357.289.308.413.691-.045.933-1.271.669-.512,1.414-.2,2.242a5.7,5.7,0,0,1,.331,2.219,2.7,2.7,0,0,1-1.738,2.681c-.676.221-2.714-2.456-2.46-3.269a1.817,1.817,0,0,0-.518-2.054c-.526-.492-1.09-1.306-1.915-.716-.782.56-.077,1.242.181,1.814.4.9.926,1.743,1.337,2.638,1.487,3.24-.453,6.2-4.049,6.2" transform="translate(-98.433 -113.402)" fill="#f7f9f4"/>
    <path id="Trazado_4222" data-name="Trazado 4222" d="M120.613,141.274a3.352,3.352,0,0,1-3.265-3.376,3.313,3.313,0,0,1,3.449-3.166,3.253,3.253,0,0,1,3.138,3.235,3.328,3.328,0,0,1-3.322,3.306m2.062-3.327c-.211-1.212-.89-2.008-2.125-1.927a1.835,1.835,0,0,0-1.852,2.124,1.806,1.806,0,0,0,1.949,1.8c1.271,0,1.864-.816,2.028-1.992" transform="translate(-81.031 -93.12)" fill="#eaf0e1"/>
    <path id="Trazado_4223" data-name="Trazado 4223" d="M209.558,223.563a3.268,3.268,0,0,1-3.3,3.3,3.332,3.332,0,0,1-3.235-3.162,3.285,3.285,0,0,1,3.212-3.4,3.218,3.218,0,0,1,3.326,3.259m-1.224-.014c-.2-1.21-.869-2.017-2.112-1.948a1.836,1.836,0,0,0-1.872,2.114,1.8,1.8,0,0,0,1.934,1.817c1.276.012,1.877-.8,2.05-1.983" transform="translate(-140.191 -152.265)" fill="#ebf1e3"/>
    <path id="Trazado_4224" data-name="Trazado 4224" d="M131.425,103.981c.352.3.717.562,1.034.877q4.688,4.66,9.355,9.343c.393.4,1.174.854.593,1.477-.615.66-1.075-.149-1.457-.526q-4.786-4.724-9.526-9.494c-.363-.364-.864-.71-.625-1.333.058-.151.364-.208.626-.344" transform="translate(-90.277 -71.868)" fill="#e9f0e0"/>
    <path id="Trazado_4225" data-name="Trazado 4225" d="M217.093,189.662c.352.307.708.583,1.026.9,3.072,3.057,6.147,6.11,9.193,9.192.429.434,1.394.943.679,1.621-.691.656-1.179-.322-1.61-.746q-4.715-4.639-9.369-9.339c-.354-.355-.889-.7-.556-1.326.079-.149.373-.184.637-.3" transform="translate(-149.397 -131.087)" fill="#e9f0e0"/>
    <path id="Trazado_4226" data-name="Trazado 4226" d="M87.892,148.059c.369.315.732.588,1.051.9q4.608,4.583,9.194,9.187c.387.391,1.2.854.624,1.455-.593.623-1.071-.183-1.459-.566q-4.705-4.646-9.367-9.336c-.362-.363-.864-.709-.63-1.332.054-.145.357-.2.588-.312" transform="translate(-60.245 -102.333)" fill="#f4f7f0"/>
    <path id="Trazado_4227" data-name="Trazado 4227" d="M173.522,233.712c.369.315.733.587,1.052.9q4.606,4.581,9.191,9.183c.385.389,1.2.851.619,1.45s-1.073-.183-1.467-.571q-4.7-4.647-9.362-9.335c-.359-.36-.871-.7-.623-1.328.057-.145.36-.192.59-.3" transform="translate(-119.37 -161.533)" fill="#f4f7f0"/>
    <path id="Trazado_4228" data-name="Trazado 4228" d="M276.448,186.424c-.123.177-.207.437-.375.514-.521.237-.846-.16-1.163-.475q-3.078-3.053-6.143-6.118c-1.292-1.289-2.585-2.578-3.866-3.878-.335-.34-.6-.786-.16-1.18.321-.288.712-.086,1,.2q5.168,5.156,10.33,10.32a3.194,3.194,0,0,1,.374.615" transform="translate(-182.652 -121.055)" fill="#e8efde"/>
    <path id="Trazado_4229" data-name="Trazado 4229" d="M190.09,101.433c-.358-.292-.731-.547-1.047-.86q-4.69-4.659-9.357-9.341c-.4-.4-1.163-.86-.633-1.481.6-.705,1.072.1,1.455.481q4.785,4.725,9.526,9.494c.362.362.884.693.663,1.324-.055.158-.353.231-.607.384" transform="translate(-123.517 -61.839)" fill="#e8efde"/>
    <path id="Trazado_4230" data-name="Trazado 4230" d="M125.671,140.821c-.164,1.176-.757,1.99-2.028,1.992a1.806,1.806,0,0,1-1.949-1.8,1.834,1.834,0,0,1,1.852-2.124c1.235-.08,1.914.715,2.125,1.927" transform="translate(-84.028 -95.994)" fill="#7ca53a"/>
    <path id="Trazado_4231" data-name="Trazado 4231" d="M211.294,226.443c-.172,1.183-.774,2-2.05,1.983a1.8,1.8,0,0,1-1.934-1.817,1.836,1.836,0,0,1,1.872-2.114c1.243-.069,1.91.738,2.112,1.948" transform="translate(-143.15 -155.16)" fill="#7ca63b"/>
  </g>
</svg>
