<?xml version="1.0" encoding="UTF-8"?><svg id="Capa_1" xmlns="http://www.w3.org/2000/svg" viewBox="0 0 227 80"><defs><style>.cls-1{stroke-width:.9px;}.cls-1,.cls-2,.cls-3{fill:#fff;}.cls-1,.cls-2,.cls-4{stroke:#fff;stroke-miterlimit:10;}.cls-2{stroke-width:.6px;}.cls-5,.cls-4{fill:#e7e8e8;}.cls-6{fill:#eff0ef;}.cls-7{fill:#80c33f;}.cls-8{fill:#bf7100;}.cls-9{fill:#3f546f;}.cls-10{fill:#71af2e;}.cls-4{stroke-width:4px;}</style></defs><path class="cls-4" d="M52.5,26.2c0-.3,0-.7,0-1,0-.2,0-.4,0-.6-.2-.1-.5-.2-.7-.4-.8-.5-1.5-1-2.3-1.4-2.1-1.3-4.1-2.6-6.2-3.8-1.9-1.2-3.7-2.3-5.6-3.5-1.3-.8-2.6-1.6-3.9-2.4-.1,0-.3-.1-.4-.2-1.7-1-3.4-2-5-3.1-.4-.3-.8-.3-1.2,0-4.8,2.9-9.5,5.9-14.3,8.8-2.8,1.8-5.7,3.5-8.5,5.3-.3,.2-.5,.4-.5,.9,0,3.8,0,7.5,0,11.3,0,4.5,0,9,0,13.5,0,.5,.1,.7,.5,1,2,1.2,3.9,2.4,5.8,3.6,.7,.4,1.3,.9,2,1.2,1.1,.8,2.3,1.4,3.4,2.2,.9,.6,1.8,1.1,2.7,1.7,1.9,1.2,3.8,2.4,5.8,3.6,1,.6,2,1.2,2.9,1.9h0s0,0,0,0c.3,.4,.7,.3,1,0,1-.7,2-1.2,3-1.9,.9-.6,1.8-1.2,2.7-1.7,.9-.5,1.7-1,2.6-1.6,.2,0,.4-.1,.6-.2,1.7-1.1,3.4-2,5.1-3.1,.7-.4,1.4-.8,2.1-1.3,0,0,.1,0,.2,0,.5-.5,1.1-.7,1.7-1.1,.7-.5,1.5-.9,2.3-1.3,1.1-.7,2.3-1.4,3.4-2,.6-.3,.8-.7,.8-1.3,0-7.7,0-15.3,0-23Z"/><path class="cls-3" d="M143.7,34.3c0,.5-.2,.9-.5,1.1-.2,.1-.5,.3-.8,.3-.3,0-.8,0-1.4,0h0s-.1,0-.3,0c-.5,0-.8,0-1,0,0,0,0,0-.1,0,0,0-.2,.1-.2,.3-.1,.3-.1,.7-.1,1.2v.4c0,.1,0,.4,0,.7v.7c0,.3,0,.6,0,.7v3.5c0,1.2-.1,2-.4,2.5-.1,.3-.2,.5-.4,.6-.2,.1-.4,.2-.7,.2-.2,0-.3,0-.5,0-.6,0-1.1-.1-1.5-.3-.2-.1-.3-.2-.4-.4,0-.1-.2-.3-.2-.5,0-.2,0-.3,0-.5,0-.1,0-.3,0-.5v-.3h0c0-.5,0-.9,0-1.3h0v-.2h0c0-.1,0-4.6,0-4.6,0-.1,0-.3,0-.5,0-.7,0-1.1,0-1.3-.1-.3-.4-.5-.8-.6-.2,0-.5,0-1,0h0c-.4,0-.8,0-1.3,0-.3,0-.5,0-.7-.1-.2-.1-.3-.4-.4-.7,0-.4,0-.8,0-1.1,.1-.4,.4-.7,.7-.9,0,0,.1,0,.2,0h.3s0,0,0,0c.1,0,.2,0,.3,0h8.9c.2,0,.3,0,.4,0,.5,0,.8,0,1.1,.1h.2c0,.1,0,.1,0,.1h0s0,0,0,0h0c.4,.3,.6,.7,.6,1.3Z"/><path class="cls-3" d="M71,45.4c0,0,0,.2,0,.3h0c0,0,0,.3,0,.3h0c0,0,0,.2-.1,.3-.2,.4-.5,.6-.9,.7h0s-.2,0-.2,0h0c-.1,0-.2,0-.3,0h-.1c-.2,0-.3,0-.6,0-.6,0-1-.2-1.2-.5-.1-.2-.2-.4-.2-.8,0-1-.2-2.1-.2-3.3h0v-1.5h0c0-.6,0-1.4,0-2.5,0-1.6,0-2.8,0-3.6v-.2c0-.7,.2-1.2,.5-1.5,.2-.2,.5-.3,.9-.4h.3s0,0,0,0c.8,0,1.3,.1,1.7,.6,.3,.3,.4,.9,.3,1.7v.2c0,.5,0,1.3,0,2.3v.2c0,1,0,2.4,0,4.4,0,1.6,0,2.8,0,3.6Z"/><path class="cls-2" d="M154.5,46.2c-1.6,0-3.2,0-4.8,0-.9,0-.9,0-.9-1.1,0-2.6,0-5.3,0-7.9,0-.2,0-.4,0-.5,0-1.3,0-1.2-1.1-1.3-.7,0-1.4,0-2.1,0-.5,0-.6-.2-.6-.8,0-1.6,0-1.6,1.3-1.6,4.2,0,8.5,0,12.7,0,.3,0,.5,0,.8,0,.3,0,.5,.2,.5,.6,0,.1,0,.3,0,.4q0,1.5-1.2,1.5c-2.3,0-4.5,0-6.8,0-.9,0-.9,0-.9,1.1,0,2.7-.2,2.2,1.8,2.3,1.5,0,3,0,4.5,0,.6,0,.8,.2,.7,.9,0,.2,0,.4,0,.7,0,.5-.2,.7-.6,.7-.7,0-1.4,0-2.1,0-1.2,0-2.5,0-3.7,0-.5,0-.7,.2-.7,.7,0,2.5-.1,2,1.6,2,2.1,0,4.3,0,6.4,0,.8,0,.8,0,.8,1.1,0,1.1,0,1.1-.8,1.1-1.6,0-3.2,0-4.8,0h0Z"/><path class="cls-1" d="M95.4,38.7c0,1.2,0,2.3,0,3.5,0,1.1,0,2.3,0,3.4,0,.6-.2,.9-.9,.9-1.8,0-1.8,0-1.8-1.8,0-3.4,0-6.9,0-10.3,0-1.3,0-1.3,1.3-1.2,.8,0,1.3,.5,1.8,1.1,1.5,1.9,3.1,3.8,4.6,5.7,1,1.3,1,1.3,2.1,0,1.4-1.9,2.9-3.8,4.3-5.8,.3-.4,.6-.9,1.2-1,1.8-.4,2.2-.1,2.2,1.7,0,3.5,0,7,0,10.4,0,1,0,1-1,1.1-.2,0-.4,0-.5,0-1,0-1,0-1-1.1,0-2.3-.2-4.7,.2-7.2-1.4,.9-2.2,2.2-3.1,3.3-.9,1.1-1.8,2.2-2.8,3.5-1.2-.9-2.1-2-3-3.1-1-1.1-1.9-2.2-2.9-3.2-.1,0-.3,0-.4,.1Z"/><path class="cls-1" d="M77.2,37.9c0,2.4,0,4.6,0,6.8,0,.4,0,.7,0,1.1,0,.5-.3,.7-.7,.7-2,.2-2,.2-2-1.9,0-3.4,0-6.8,0-10.2,0-.5-.2-1,.2-1.4,.3-.2,2,0,2.3,.3,.2,.2,.5,.4,.7,.7,2.7,2.8,5.4,5.6,8.1,8.4,.3,.3,.6,.7,.9,1,.6-.4,.4-.8,.4-1.2,0-2.7,0-5.3,0-8,0-1.1,0-1.1,1.1-1.1,.1,0,.3,0,.4,0,1.2,0,1.2,0,1.2,1.2,0,3.7,0,7.3,0,11,0,1.1,0,1-1.2,1.2-1.9,.3-3.1-.5-4.3-1.8-2-2.3-4.2-4.3-6.4-6.5,0,0-.2-.1-.5-.4Z"/><path class="cls-1" d="M217,45.6c-1,0-2,.1-3.1,.1-.6,0-.9-.5-1.2-1-1.3-1.8-2.5-3.7-3.7-5.5-.4-.7-.9-1.3-1.4-2-.9,.8-1.5,1.8-2.2,2.7-1.2,1.6-2.3,3.2-3.4,4.8-.4,.6-.8,.9-1.5,.8-.9,0-1.7,.2-2.6,0-.2-.4,.1-.6,.3-.8,2.3-2.8,4.3-5.8,6.4-8.8,.5-.7,1-1.4,1.5-2,.4-.5,.9-.6,1.5-.7,.7,0,1.2,.1,1.6,.7,2.4,3.7,5,7.1,7.5,10.6,.2,.2,.4,.4,.3,.8Z"/><path class="cls-2" d="M191.1,41.2c.5-.1,.8-.2,1.1-.3,1.8-.6,2.6-1.7,2.6-3.8,0-1.8-.9-3.1-2.5-3.8-.8-.3-1.6-.4-2.5-.4-2.8,0-5.6,0-8.4,0-1.1,0-1.1,0-1.1,1.2,0,3.6,0,7.2,0,10.8,0,.3,0,.5,0,.8,0,.2,.1,.4,.4,.4,.7,0,1.4,.2,1.9-.1,.5-.3,.2-1,.3-1.5,0-.3,0-.6,0-.9,0-.7-.3-1.6,.3-2.1,.5-.4,1.3,0,2-.2,1.2-.2,2.1,.3,2.8,1.3,.6,.8,1.3,1.7,2,2.5,.3,.4,.6,.9,1.1,.9,1.2,0,2.4,.2,3.9,0-1.4-1.7-2.6-3.2-4-4.8Zm-1-2.5c-2.2,.3-4.4,.2-6.5,.2-.4,0-.6-.2-.6-.6,0-.8,0-1.6,0-2.4,0-.4,.2-.6,.7-.6,1,0,2.1,0,3.1,0h0c.9,0,1.7,0,2.6,0,.6,0,1.1,.2,1.5,.6,.5,.5,.8,1.1,.6,1.8-.2,.7-.8,.9-1.4,1Z"/><path class="cls-2" d="M173.6,41.3c.5-.1,.8-.2,1.1-.3,1.8-.6,2.6-1.7,2.6-3.8,0-1.8-.9-3.1-2.5-3.8-.8-.3-1.6-.4-2.5-.4-2.8,0-5.6,0-8.4,0-1.1,0-1.1,0-1.1,1.2,0,3.6,0,7.2,0,10.8,0,.3,0,.5,0,.8,0,.2,.1,.4,.4,.4,.7,0,1.4,.2,1.9-.1,.5-.3,.2-1,.3-1.5,0-.3,0-.6,0-.9,0-.7-.3-1.6,.3-2.1,.5-.4,1.3,0,2-.2,1.2-.2,2.1,.3,2.8,1.3,.6,.8,1.3,1.7,2,2.5,.3,.4,.6,.9,1.1,.9,1.2,0,2.4,.2,3.9,0-1.4-1.7-2.6-3.2-4-4.8Zm-1-2.5c-2.2,.3-4.4,.2-6.5,.2-.4,0-.6-.2-.6-.6,0-.8,0-1.6,0-2.4,0-.4,.2-.6,.7-.6,1,0,2.1,0,3.1,0h0c.9,0,1.7,0,2.6,0,.6,0,1.1,.2,1.5,.6,.5,.5,.8,1.1,.6,1.8-.2,.7-.8,.9-1.4,1Z"/><path class="cls-1" d="M125.3,33.4c-3.2-1.7-6.3-1.4-9.3,.5-3.5,2.2-4.1,7-1.4,10.2,1.6,1.9,3.7,2.8,5.6,2.8,2,0,3.5-.3,4.9-1,1.9-.9,3.4-2.4,3.9-4.8,.7-3.3-.7-6.2-3.7-7.8Zm.7,8.3c-.9,1.8-2.7,2.8-5.2,2.8-1.6,0-3.3-.9-4.5-2.9-.9-1.5-.8-3.2,.2-4.5,2.3-3.2,7.7-2.8,9.6,.7,.7,1.3,.7,2.6,0,3.9Z"/><path class="cls-9" d="M12.2,55.4c-.7-.3-1.3-.8-2-1.2-1.9-1.2-3.9-2.4-5.8-3.6-.4-.3-.5-.5-.5-1,0-4.5,0-9,0-13.5,0-3.8,0-7.5,0-11.3,0-.4,.2-.7,.5-.9,2.8-1.7,5.7-3.5,8.5-5.3,4.8-3,9.5-5.9,14.3-8.8,.5-.3,.8-.2,1.2,0,1.7,1.1,3.3,2.1,5,3.1,.1,0,.3,.1,.4,.2,1.3,.9,2.6,1.6,3.9,2.4,1.9,1.2,3.7,2.3,5.6,3.5,2.1,1.3,4.1,2.6,6.2,3.8,.8,.5,1.5,1,2.3,1.4,.2,.1,.5,.2,.7,.4,0,.2,0,.4,0,.6,0,.3,0,.7,0,1,0,7.7,0,15.3,0,23,0,.7-.2,1-.8,1.3-1.2,.6-2.3,1.3-3.4,2-.7,.5-1.5,.9-2.3,1.3-.6,.4-1.2,.6-1.7,1.1,0,0-.1,0-.2,0,0-.2,0-.4,0-.6,0-4.1,0-8.1,0-12.2,0-3.3,0-6.6,0-9.9,0-.5,0-1,0-1.5,0-.3,0-.5-.3-.6-.2,0-.3-.2-.5-.3-2.2-1.3-4.3-2.7-6.5-4-.1,0-.2-.2-.4,0,0,.2,0,.5,0,.7,0,3.4,0,6.8,0,10.1,0,.4,0,.7,0,1.1-.2-.1-.5-.2-.7-.4-1.7-1.1-3.5-2.1-5.2-3.2-.8-.5-1.7-1-2.5-1.6,0-4,0-8,0-12.1-.2,.1-.3,.2-.4,.2-.8,.5-1.6,1.1-2.4,1.5-1.3,.7-2.5,1.5-3.7,2.3-1.5,1-3,1.9-4.6,2.8-1.4,.9-2.9,1.7-4.3,2.6-.4,.2-.5,.5-.5,.9,0,3.6,0,7.3,0,10.9,0,.1,0,.2,0,.3,0,4.5,0,8.9,0,13.4Z"/><path class="cls-7" d="M12.4,55.4c0-4.5,0-8.9,0-13.4,0-.1,0-.2,0-.3,.2,0,.3,0,.5-.2,1.6-.9,3.1-1.9,4.7-2.8,.9-.6,1.9-1.1,2.9-1.7,1-.6,1.9-1.1,2.9-1.7,1.5-.9,2.9-1.7,4.4-2.6,.2,0,.3-.1,.5-.2,.2,.3,.3,.6,.3,.9,0,9.9,0,19.8,0,29.8,0,.2,0,.4,0,.6,0,.4-.2,.8-.7,.8,0,0-.2,0-.3,.1h0s0,0,0,0c-.9-.7-2-1.3-2.9-1.9-1.9-1.2-3.8-2.4-5.8-3.6-.9-.6-1.8-1.1-2.7-1.7-1.1-.8-2.3-1.4-3.4-2.2Z"/><path class="cls-10" d="M27.3,64.8c0,0,.2-.2,.3-.1,.5,0,.6-.3,.7-.8,0-.2,0-.4,0-.6,0-9.9,0-19.8,0-29.8,0-.3,0-.7-.3-.9,0,0,.1-.1,.2-.2,.8,.6,1.7,1.1,2.5,1.6,1.7,1.1,3.5,2,5.2,3.2,.2,.1,.5,.3,.7,.4,0,0,0,0,0,0-.1,.3,0,.6,0,.9,0,4.6,0,9.2,0,13.7,0,2.4,0,4.9,0,7.3-.8,.6-1.7,1.1-2.6,1.6-.9,.5-1.8,1.1-2.7,1.7-1,.6-2,1.2-3,1.9-.3,.2-.7,.3-1,0Z"/><path class="cls-8" d="M36.6,59.6c0-2.4,0-4.9,0-7.3,0-4.6,0-9.2,0-13.7,0-.3,0-.6,0-.9,.2,0,.4,.1,.6,.3,2.2,1.4,4.4,2.7,6.6,4.1,.1,0,.3,.2,.4,.2,0,4.1,0,8.1,0,12.2,0,.2,0,.4,0,.6-.7,.5-1.4,.9-2.1,1.3-1.7,1.1-3.5,2-5.1,3.1-.2,.1-.4,.2-.6,.2Z"/><path class="cls-6" d="M28.3,32.4c0,0-.1,.1-.2,.2-.2,0-.3,.1-.5,.2-.2-.1-.1-.2,0-.4,.2-.3,.4-.7,.3-1.1,0-.5,0-1.1,0-1.6,0-.4,0-.8,0-1.2,0-.8-.2-1.6-.2-2.3,0-.6,0-1.2,.1-1.9,0-.7,0-1.4,.1-2.1,0-.2,0-.3,0-.5,0-.2,0-.3-.2-.4-.2,0-.3,0-.4,.1-.3,.3-.6,.5-.9,.7-1.2,.8-2.5,1.5-3.7,2.3-.6,.4-1.2,.8-1.9,1.1-.3,.1-.5,.4-.5,.8,0,3.3,0,6.7,0,10,0,.2,0,.5,.1,.7-.9,.6-1.9,1.1-2.9,1.7-1.5,1-3.1,1.9-4.7,2.8-.1,0-.3,.2-.5,.2,0-3.6,0-7.3,0-10.9,0-.4,.1-.7,.5-.9,1.4-.9,2.9-1.8,4.3-2.6,1.5-.9,3.1-1.9,4.6-2.8,1.2-.8,2.5-1.6,3.7-2.3,.8-.5,1.6-1,2.4-1.5,.1,0,.2-.1,.4-.2,0,4.1,0,8.1,0,12.1Z"/><path class="cls-5" d="M20.4,37c-.1-.2-.1-.4-.1-.7,0-3.3,0-6.7,0-10,0-.4,.1-.6,.5-.8,.7-.3,1.3-.8,1.9-1.1,1.3-.7,2.5-1.5,3.7-2.3,.3-.2,.6-.4,.9-.7,.1-.1,.3-.2,.4-.1,.1,0,.2,.2,.2,.4,0,.2,0,.3,0,.5-.2,.7,0,1.4-.1,2.1,0,.6-.1,1.2-.1,1.9,0,.8,.1,1.6,.2,2.3,0,.4,0,.8,0,1.2,0,.5,0,1.1,0,1.6,0,.4,0,.8-.3,1.1,0,.1-.2,.2,0,.4-1.4,.9-2.9,1.7-4.4,2.6-1,.6-1.9,1.1-2.9,1.7Z"/></svg>