<?xml version="1.0" encoding="UTF-8"?><svg id="Capa_1" xmlns="http://www.w3.org/2000/svg" viewBox="0 0 174 104"><defs><style>.cls-1{stroke-width:.9px;}.cls-1,.cls-2{stroke:#666;}.cls-1,.cls-2,.cls-3{fill:#666;}.cls-1,.cls-2,.cls-4{stroke-miterlimit:10;}.cls-2{stroke-width:.6px;}.cls-5,.cls-4{fill:#e7e8e8;}.cls-6{fill:#eff0ef;}.cls-7{fill:#80c33f;}.cls-8{fill:#bf7100;}.cls-9{fill:#3f546f;}.cls-10{fill:#71af2e;}.cls-4{stroke:#fff;stroke-width:4px;}</style></defs><path class="cls-4" d="M115.3,25.4c0-.4,0-.8,0-1.2,0-.2,0-.5,0-.7-.3-.2-.6-.3-.9-.5-1-.6-1.9-1.2-2.9-1.8-2.6-1.6-5.2-3.2-7.8-4.8-2.3-1.4-4.7-2.9-7-4.3-1.6-1-3.3-2-4.9-3.1-.2,0-.3-.1-.5-.2-2.1-1.3-4.2-2.6-6.3-3.9-.5-.3-.9-.4-1.5,0-6,3.6-11.9,7.4-17.8,11.1-3.5,2.2-7.1,4.4-10.6,6.6-.4,.3-.6,.5-.6,1.1,0,4.7,0,9.4,0,14.2,0,5.6,0,11.3,0,16.9,0,.6,.2,.9,.7,1.2,2.4,1.5,4.8,3,7.3,4.5,.8,.5,1.6,1.1,2.5,1.5,1.4,1,2.9,1.8,4.3,2.8,1.1,.8,2.2,1.4,3.4,2.1,2.4,1.5,4.8,3,7.2,4.5,1.2,.8,2.5,1.5,3.7,2.4h0s0,0,0,0c.4,.4,.9,.3,1.3,0,1.2-.8,2.5-1.6,3.7-2.3,1.1-.7,2.3-1.5,3.4-2.1,1.1-.6,2.2-1.3,3.2-2,.2-.1,.5-.2,.7-.3,2.1-1.4,4.3-2.5,6.4-3.9,.9-.6,1.8-1,2.6-1.6,0,0,.2,0,.2,0,.6-.6,1.4-.9,2.1-1.4,.9-.6,1.9-1.1,2.8-1.7,1.4-.9,2.8-1.7,4.3-2.5,.7-.4,1-.8,1-1.6,0-9.6,0-19.2,0-28.8Z"/><path class="cls-3" d="M90,81.6c0,.5-.2,.9-.5,1.2-.2,.2-.5,.3-.8,.3-.3,0-.9,0-1.5,0h0s-.1,0-.3,0c-.5,0-.9,0-1.1,0,0,0,0,0-.1,0,0,0-.2,.2-.2,.3-.1,.3-.2,.7-.1,1.3v.4c0,.1,0,.4,0,.8v.8c0,.4,0,.6,0,.8v3.8c0,1.3-.1,2.2-.4,2.7-.1,.3-.3,.5-.4,.6-.2,.1-.4,.2-.8,.2-.2,0-.4,0-.5,0-.7,0-1.2-.1-1.6-.4-.2-.1-.3-.3-.4-.4-.1-.2-.2-.3-.2-.5,0-.2,0-.4,0-.5,0-.1,0-.3,0-.5v-.4h0c0-.5,0-1,0-1.4h0v-5.2c0-.1,0-.3,0-.6,0-.7,0-1.2,0-1.5-.1-.3-.4-.5-.9-.7-.2,0-.6,0-1.1,0h0c-.5,0-.9,0-1.4,0-.3,0-.6,0-.7-.2-.2-.1-.4-.4-.4-.8,0-.5,0-.9,0-1.2,.1-.5,.4-.8,.8-.9,0,0,.1,0,.2,0h.3s0,0,0,0c.1,0,.2,0,.3,0h9.7c.2,0,.3,0,.4,0,.5,0,.9,0,1.2,.2h.2c0,.1,0,.1,0,.1h0s0,0,0,0h0c.5,.3,.7,.8,.7,1.5Z"/><path class="cls-3" d="M10.6,93.6c0,0,0,.2,0,.3h0c0,0,0,.3,0,.3h0c0,0,0,.2-.1,.3-.2,.4-.5,.6-1,.8h0s-.2,0-.2,0h0c-.1,0-.2,0-.3,0h-.2c-.2,0-.4,0-.6,0-.6,0-1.1-.3-1.3-.6-.1-.2-.2-.5-.2-.9-.1-1.1-.2-2.3-.2-3.6h0v-1.6h0c0-.7,0-1.5,0-2.7,0-1.7,0-3,0-3.9v-.3c0-.8,.2-1.3,.6-1.7,.2-.2,.6-.4,1-.5h.3s0,0,0,0c.8,0,1.4,.2,1.8,.6,.3,.3,.4,.9,.4,1.8v.2c0,.6,0,1.4,0,2.5v.2c0,1.1,0,2.7,0,4.8,0,1.8,0,3.1,0,4Z"/><path class="cls-2" d="M101.8,94.6c-1.7,0-3.5,0-5.2,0-1,0-1,0-1-1.2,0-2.9,0-5.7,0-8.6,0-.2,0-.4,0-.6,0-1.5,0-1.4-1.2-1.4-.8,0-1.5,0-2.3,0-.5,0-.7-.2-.7-.8,0-1.7,0-1.7,1.4-1.8,4.6-.1,9.3,0,13.9,0,.3,0,.6,0,.8,0,.3,0,.5,.2,.5,.6,0,.1,0,.3,0,.4q0,1.6-1.3,1.6c-2.5,0-4.9,0-7.4,0-1,0-1,0-1,1.2,0,3-.3,2.4,2,2.5,1.6,0,3.3,0,4.9,0,.6,0,.9,.3,.8,1,0,.2,0,.5,0,.7,0,.5-.2,.8-.6,.8-.8,0-1.5,0-2.3,0-1.3,0-2.7,0-4,0-.5,0-.7,.2-.7,.8,0,2.7-.1,2.2,1.7,2.2,2.3,0,4.7,0,7,0,.8,0,.8,0,.8,1.2,0,1.2,0,1.2-.8,1.2-1.7,0-3.5,0-5.2,0h0Z"/><path class="cls-1" d="M37.3,86.4c0,1.3,0,2.5,0,3.8,0,1.2,0,2.5,0,3.7,0,.6-.2,1-.9,1-1.9,0-2,0-2-1.9,0-3.7,0-7.5,0-11.2,0-1.4,0-1.4,1.4-1.3,.8,0,1.5,.5,2,1.2,1.7,2.1,3.3,4.1,5,6.2,1.1,1.4,1.1,1.4,2.3,0,1.6-2.1,3.1-4.2,4.7-6.3,.4-.5,.7-.9,1.3-1.1,2-.5,2.4-.1,2.4,1.9,0,3.8,0,7.6,0,11.4,0,1.1,0,1.1-1.1,1.2-.2,0-.4,0-.6,0-1.1,0-1.1,0-1.1-1.2,0-2.6-.2-5.1,.2-7.9-1.6,1-2.4,2.4-3.4,3.6-1,1.2-2,2.4-3.1,3.8-1.3-1-2.3-2.2-3.3-3.4-1-1.2-2.1-2.4-3.1-3.5-.1,0-.3,0-.4,.1Z"/><path class="cls-1" d="M17.5,85.4c0,2.6,0,5,0,7.4,0,.4,0,.8,0,1.2,0,.6-.3,.7-.8,.8-2.2,.2-2.2,.2-2.2-2,0-3.7,0-7.4,0-11.1,0-.5-.2-1.1,.3-1.5,.3-.3,2.2,0,2.5,.4,.3,.2,.5,.5,.7,.7,3,3,5.9,6.1,8.9,9.1,.3,.4,.6,.7,.9,1.1,.6-.4,.4-.9,.4-1.3,0-2.9,0-5.8,0-8.7,0-1.2,0-1.2,1.2-1.2,.1,0,.3,0,.4,0,1.3,0,1.3,0,1.3,1.3,0,4,0,8,0,12,0,1.2,0,1.1-1.3,1.3-2,.3-3.4-.5-4.7-2-2.2-2.5-4.6-4.7-7-7.1,0,0-.2-.2-.6-.4Z"/><path class="cls-1" d="M170,93.9c-1.1,0-2.2,.1-3.3,.1-.7,0-1-.6-1.3-1.1-1.4-2-2.7-4-4.1-6-.5-.7-1-1.4-1.6-2.2-1,.9-1.6,2-2.4,3-1.3,1.7-2.5,3.5-3.7,5.2-.4,.6-.9,1-1.7,.9-.9,0-1.9,.2-2.8,0-.2-.4,.1-.6,.3-.9,2.5-3.1,4.7-6.3,7-9.6,.5-.8,1.1-1.5,1.7-2.1,.5-.5,1-.7,1.7-.7,.8,0,1.3,.2,1.7,.8,2.6,4,5.5,7.7,8.2,11.6,.2,.2,.4,.5,.4,.9Z"/><path class="cls-2" d="M141.7,89.1c.5-.2,.9-.2,1.2-.4,2-.7,2.8-1.8,2.9-4.1,0-1.9-.9-3.4-2.7-4.1-.9-.3-1.8-.4-2.7-.4-3.1,0-6.1,0-9.2,0-1.2,0-1.2,0-1.2,1.3,0,3.9,0,7.8,0,11.8,0,.3,0,.6,0,.9,0,.3,.1,.5,.4,.5,.7,0,1.5,.3,2.1-.1,.5-.3,.2-1.1,.3-1.6,0-.3,0-.7,0-1,0-.8-.3-1.8,.3-2.3,.5-.5,1.5,0,2.2-.2,1.3-.2,2.3,.4,3.1,1.4,.7,.9,1.4,1.8,2.2,2.7,.3,.4,.7,1,1.2,1,1.3,0,2.6,.2,4.2,0-1.5-1.9-2.9-3.5-4.3-5.3Zm-1.1-2.7c-2.4,.3-4.8,.2-7.1,.2-.5,0-.7-.2-.7-.7,0-.9,0-1.7,0-2.6,0-.5,.3-.7,.7-.7,1.1,0,2.3,0,3.4,0h0c1,0,1.9,0,2.9,0,.7,0,1.2,.2,1.7,.7,.5,.5,.9,1.2,.7,1.9-.2,.7-.9,1-1.6,1.1Z"/><path class="cls-2" d="M122.7,89.1c.5-.2,.9-.2,1.2-.4,2-.7,2.8-1.8,2.9-4.1,0-1.9-.9-3.4-2.7-4.1-.9-.3-1.8-.4-2.7-.4-3.1,0-6.1,0-9.2,0-1.2,0-1.2,0-1.2,1.3,0,3.9,0,7.8,0,11.8,0,.3,0,.6,0,.9,0,.3,.1,.5,.4,.5,.7,0,1.5,.3,2.1-.1,.5-.3,.2-1.1,.3-1.6,0-.3,0-.7,0-1,0-.8-.3-1.8,.3-2.3,.5-.5,1.5,0,2.2-.2,1.3-.2,2.3,.4,3.1,1.4,.7,.9,1.4,1.8,2.2,2.7,.3,.4,.7,1,1.2,1,1.3,0,2.6,.2,4.2,0-1.5-1.9-2.9-3.5-4.3-5.3Zm-1.1-2.7c-2.4,.3-4.8,.2-7.1,.2-.5,0-.7-.2-.7-.7,0-.9,0-1.7,0-2.6,0-.5,.3-.7,.7-.7,1.1,0,2.3,0,3.4,0h0c1,0,1.9,0,2.9,0,.7,0,1.2,.2,1.7,.7,.5,.5,.9,1.2,.7,1.9-.2,.7-.9,1-1.6,1.1Z"/><path class="cls-1" d="M69.9,80.5c-3.5-1.8-6.9-1.5-10.2,.6-3.8,2.4-4.5,7.6-1.5,11.1,1.8,2.1,4,3,6.1,3.1,2.2,0,3.8-.4,5.3-1.1,2.1-1,3.7-2.6,4.2-5.2,.7-3.6-.8-6.8-4-8.5Zm.8,9.1c-1,1.9-2.9,3.1-5.7,3.1-1.7,0-3.7-1-4.9-3.1-.9-1.6-.9-3.5,.2-5,2.5-3.5,8.4-3.1,10.4,.8,.7,1.4,.7,2.8,0,4.2Z"/><path class="cls-9" d="M64.9,61.9c-.9-.4-1.7-1-2.5-1.5-2.4-1.5-4.8-3-7.3-4.5-.5-.3-.7-.7-.7-1.2,0-5.6,0-11.3,0-16.9,0-4.7,0-9.4,0-14.2,0-.6,.2-.8,.6-1.1,3.6-2.2,7.1-4.4,10.6-6.6,5.9-3.7,11.9-7.4,17.8-11.1,.6-.4,1-.3,1.5,0,2.1,1.3,4.2,2.6,6.3,3.9,.2,0,.3,.2,.5,.2,1.6,1.1,3.2,2,4.9,3.1,2.3,1.4,4.7,2.9,7,4.3,2.6,1.6,5.2,3.2,7.8,4.8,1,.6,1.9,1.2,2.9,1.8,.3,.2,.6,.3,.9,.5,0,.2,0,.5,0,.7,0,.4,0,.8,0,1.2,0,9.6,0,19.2,0,28.8,0,.8-.3,1.3-1,1.6-1.5,.8-2.9,1.6-4.3,2.5-.9,.6-1.9,1.1-2.8,1.7-.7,.5-1.5,.8-2.1,1.4,0,0-.1,0-.2,0,0-.3,0-.5,0-.8,0-5.1,0-10.2,0-15.2,0-4.1,0-8.3,0-12.4,0-.6,0-1.2,0-1.9,0-.3,0-.6-.4-.8-.2-.1-.4-.3-.6-.4-2.7-1.7-5.4-3.4-8.1-5-.1,0-.3-.3-.5-.1,0,.3,0,.6,0,.9,0,4.2,0,8.4,0,12.7,0,.4,0,.9,0,1.3-.3-.2-.6-.3-.9-.5-2.1-1.4-4.3-2.6-6.5-4-1.1-.7-2.2-1.2-3.1-2,0-5,0-10,0-15.1-.3,.2-.4,.2-.5,.3-1,.6-2,1.3-3,1.9-1.6,.9-3.1,1.9-4.7,2.9-1.9,1.2-3.8,2.4-5.7,3.5-1.8,1.1-3.6,2.2-5.4,3.3-.5,.3-.6,.6-.6,1.1,0,4.5,0,9.1,0,13.6,0,.1,0,.3,0,.4,0,5.6,0,11.2,0,16.8Z"/><path class="cls-7" d="M65.2,61.9c0-5.6,0-11.2,0-16.8,0-.1,0-.3,0-.4,.2,0,.4-.1,.6-.2,1.9-1.2,3.9-2.3,5.8-3.5,1.2-.7,2.4-1.4,3.6-2.2,1.2-.7,2.4-1.4,3.6-2.1,1.8-1.1,3.7-2.1,5.5-3.2,.2,0,.4-.1,.6-.2,.3,.3,.3,.7,.3,1.2,0,12.4,0,24.8,0,37.2,0,.3,0,.5,0,.8,0,.5-.2,.9-.8,.9-.1,0-.2,.1-.3,.2h0s0,0,0,0c-1.2-.9-2.5-1.6-3.7-2.4-2.4-1.5-4.8-3-7.2-4.5-1.1-.7-2.3-1.3-3.4-2.1-1.4-1-2.9-1.8-4.3-2.8Z"/><path class="cls-10" d="M83.9,73.6c.1,0,.2-.2,.3-.2,.7,0,.8-.4,.8-.9,0-.3,0-.5,0-.8,0-12.4,0-24.8,0-37.2,0-.4,0-.8-.3-1.2,0,0,.2-.1,.3-.2,1,.8,2.1,1.3,3.1,2,2.2,1.3,4.4,2.6,6.5,4,.3,.2,.6,.3,.9,.5,0,0,0,0,0,0-.2,.4,0,.8,0,1.2,0,5.7,0,11.5,0,17.2,0,3.1,0,6.1,0,9.2-1,.7-2.1,1.4-3.2,2-1.2,.7-2.3,1.4-3.4,2.1-1.2,.8-2.5,1.5-3.7,2.3-.4,.3-.9,.4-1.3,0Z"/><path class="cls-8" d="M95.4,67.2c0-3.1,0-6.1,0-9.2,0-5.7,0-11.5,0-17.2,0-.4,0-.8,0-1.2,.3,0,.5,.2,.8,.3,2.7,1.7,5.5,3.4,8.2,5.1,.2,.1,.3,.2,.6,.2,0,5.1,0,10.2,0,15.2,0,.3,0,.5,0,.8-.8,.6-1.8,1.1-2.6,1.6-2.1,1.3-4.3,2.5-6.4,3.9-.2,.1-.5,.2-.7,.3Z"/><path class="cls-6" d="M85,33.1c0,0-.2,.1-.3,.2-.2,0-.4,.1-.6,.2-.2-.1-.1-.3,0-.5,.3-.4,.5-.9,.4-1.4-.1-.7,0-1.3-.1-2,0-.5,0-1,0-1.5-.1-1-.2-1.9-.3-2.9,0-.8,0-1.5,.1-2.3,0-.9,0-1.8,.2-2.6,0-.2,0-.4,0-.6,0-.2,0-.4-.2-.5-.2-.1-.4,0-.5,.2-.3,.3-.7,.6-1.1,.9-1.5,.9-3.1,1.9-4.6,2.8-.8,.5-1.5,1-2.4,1.4-.4,.2-.6,.5-.6,1,0,4.2,0,8.3,0,12.5,0,.3,0,.6,.2,.8-1.1,.8-2.4,1.4-3.6,2.2-1.9,1.2-3.9,2.3-5.8,3.5-.2,.1-.3,.2-.6,.2,0-4.5,0-9.1,0-13.6,0-.5,.1-.8,.6-1.1,1.8-1.1,3.6-2.2,5.4-3.3,1.9-1.2,3.8-2.3,5.7-3.5,1.5-1,3.1-2,4.7-2.9,1-.6,2-1.3,3-1.9,.1,0,.3-.2,.5-.3,0,5.1,0,10.1,0,15.1Z"/><path class="cls-5" d="M75.1,38.8c-.1-.3-.2-.5-.2-.8,0-4.2,0-8.3,0-12.5,0-.5,.2-.8,.6-1,.9-.4,1.6-1,2.4-1.4,1.6-.9,3.1-1.9,4.6-2.8,.4-.2,.8-.5,1.1-.9,.1-.2,.3-.3,.5-.2,.2,0,.2,.3,.2,.5,0,.2,0,.4,0,.6-.2,.9,0,1.8-.2,2.6,0,.8-.2,1.5-.1,2.3,0,1,.2,2,.3,2.9,0,.5,0,1,0,1.5,0,.7,0,1.3,.1,2,0,.5,0,1-.4,1.4-.1,.2-.2,.3,0,.5-1.8,1.1-3.6,2.1-5.5,3.2-1.2,.7-2.4,1.4-3.6,2.1Z"/></svg>